HIERARCHY
ROOT root
{
	OFFSET	0	13.1	24.9
	CHANNELS 6  Xposition Yposition Zposition Xrotation Yrotation Zrotation
	JOINT spine_1
	{
		OFFSET	0	9.99999	0
		CHANNELS 3  Xrotation Yrotation Zrotation
		JOINT spine_2
		{
			OFFSET	0	112	-10
			CHANNELS 3  Xrotation Yrotation Zrotation
			JOINT spine_3
			{
				OFFSET	0	206.5	19.3
				CHANNELS 3  Xrotation Yrotation Zrotation
				JOINT spine_4
				{
					OFFSET	0	110.4	14.6
					CHANNELS 3  Xrotation Yrotation Zrotation
					JOINT neck_1
					{
						OFFSET	0	71.8	-50.3
						CHANNELS 3  Xrotation Yrotation Zrotation
						JOINT neck_2
						{
							OFFSET	0	86.2	-25.8
							CHANNELS 3  Xrotation Yrotation Zrotation
							JOINT head_ee
							{
								OFFSET	0	179.8	-8.7
								CHANNELS 3  Xrotation Yrotation Zrotation
								End Site
								{
									OFFSET	1	0	0
								}
							}
						}
					}
					JOINT left_clavicle
					{
						OFFSET	-43.2	22.4	-70.8
						CHANNELS 3  Xrotation Yrotation Zrotation
						JOINT left_shoulder
						{
							OFFSET	-93.9	-5.79999	48.7
							CHANNELS 3  Xrotation Yrotation Zrotation
							JOINT left_elbow
							{
								OFFSET	-291.4	-30.8	15.2
								CHANNELS 3  Xrotation Yrotation Zrotation
								JOINT left_lowarm_twist
								{
									OFFSET	-110.7	-3.89999	13.6
									CHANNELS 3  Xrotation Yrotation Zrotation
									JOINT left_hand
									{
										OFFSET	-110.7	-3.89999	13.6
										CHANNELS 3  Xrotation Yrotation Zrotation
										JOINT left_ee
										{
											OFFSET	-80.8	-5.10001	12.1
											CHANNELS 3  Xrotation Yrotation Zrotation
											End Site
											{
												OFFSET	1	0	0
											}
										}
									}
								}
							}
						}
					}
					JOINT right_clavicle
					{
						OFFSET	43.2	22.4	-70.8
						CHANNELS 3  Xrotation Yrotation Zrotation
						JOINT right_shoulder
						{
							OFFSET	93.9	-5.79999	48.7
							CHANNELS 3  Xrotation Yrotation Zrotation
							JOINT right_elbow
							{
								OFFSET	291.4	-30.8	15.2
								CHANNELS 3  Xrotation Yrotation Zrotation
								JOINT right_lowarm_twist
								{
									OFFSET	110.7	-3.89999	13.6
									CHANNELS 3  Xrotation Yrotation Zrotation
									JOINT right_hand
									{
										OFFSET	110.7	-3.89999	13.6
										CHANNELS 3  Xrotation Yrotation Zrotation
										JOINT right_ee
										{
											OFFSET	80.8	-5.10001	12.1
											CHANNELS 3  Xrotation Yrotation Zrotation
											End Site
											{
												OFFSET	1	0	0
											}
										}
									}
								}
							}
						}
					}
				}
			}
		}
	}
	JOINT left_hip
	{
		OFFSET	-82.8	-127.5	0.300001
		CHANNELS 3  Xrotation Yrotation Zrotation
		JOINT left_knee
		{
			OFFSET	-28.2	-396.7	2.2
			CHANNELS 3  Xrotation Yrotation Zrotation
			JOINT left_ankle
			{
				OFFSET	-11.7	-411.3	35.4
				CHANNELS 3  Xrotation Yrotation Zrotation
				JOINT left_toes
				{
					OFFSET	0	-60	-88.6
					CHANNELS 3  Xrotation Yrotation Zrotation
					JOINT left_foot_ee
					{
						OFFSET	-22.5	-16.5	-42.2
						CHANNELS 3  Xrotation Yrotation Zrotation
						End Site
						{
							OFFSET	1	0	0
						}
					}
				}
			}
		}
	}
	JOINT right_hip
	{
		OFFSET	82.8	-127.5	0.300001
		CHANNELS 3  Xrotation Yrotation Zrotation
		JOINT right_knee
		{
			OFFSET	28.2	-396.7	2.2
			CHANNELS 3  Xrotation Yrotation Zrotation
			JOINT right_ankle
			{
				OFFSET	11.7	-411.3	35.4
				CHANNELS 3  Xrotation Yrotation Zrotation
				JOINT right_toes
				{
					OFFSET	0	-60	-88.6
					CHANNELS 3  Xrotation Yrotation Zrotation
					JOINT right_foot_ee
					{
						OFFSET	22.5	-16.5	-42.2
						CHANNELS 3  Xrotation Yrotation Zrotation
						End Site
						{
							OFFSET	1	0	0
						}
					}
				}
			}
		}
	}
}
MOTION
Frames: 5
Frame Time: 0.02
391.555 721.904 -1204.45 -161.269547396 -63.6935759372 -163.567987531 4.44474 0.424155 3.52152 4.45161 0.199355 3.54134 4.45908 -0.275526 3.53624 4.44174 0.286056 3.5354 -13.0571 14.322 -1.07434 -13.6139 27.9244 3.4682 -0.0 0.0 -0.0 -9.00403 16.9837 -12.3204 -16.0281 -26.2874 66.0632 1.31195 -33.0184 0.388863 32.0959 -0.00316654 -4.0469 -0.997047 18.4009 1.43543 -0.0 0.0 -0.0 12.2034 19.4684 -24.4381 -23.3167 38.8229 -70.2571 0.637759 17.5329 -0.0983487 35.5596 0.13867 4.46832 1.90746 -7.59823 -15.7572 0.0 0.0 0.0 8.98057 60.1561 -5.808 -13.4195 0.315986 2.03046 27.6702 -30.3374 -4.52705 24.998 -0.0 -0.0 -0.0 0.0 -0.0 10.4139 18.0285 -0.356315 -8.09662 -0.247718 -1.21686 21.327 -5.86483 2.89441 27.1147 -0.0 -0.0 0.0 0.0 0.0 
396.619611109 717.151 -1200.06112608 -166.540631646 -48.0464471454 -170.803997161 4.6127 0.357177 3.48484 4.61944 0.134843 3.50048 4.62261 -0.324144 3.48806 4.60571 0.230451 3.49549 -13.6796 13.8681 -2.44394 -14.2814 27.9263 2.18817 -0.0 0.0 -0.0 -8.63521 17.3279 -11.5819 -12.3661 -26.279 64.7436 1.49001 -36.4289 0.490332 32.933 -0.0335738 -4.14948 -0.180425 12.3494 3.94624 -0.0 0.0 -0.0 11.7255 20.9221 -23.2369 -26.67 38.6017 -69.5169 0.604175 16.6621 -0.0884748 33.6349 0.060223 4.23514 1.94239 -11.3787 -17.3288 0.0 0.0 0.0 6.28271 63.1191 -3.15607 -12.2417 0.307399 1.84996 24.6805 -28.4451 -4.02269 27.123 -0.0 -0.0 -0.0 0.0 -0.0 11.4703 16.0939 1.14142 -8.28369 -0.251397 -1.24533 24.4039 -2.97702 3.26824 26.4056 -0.0 -0.0 0.0 0.0 0.0 
396.514389505 717.151 -1199.94256661 -166.879302593 -46.7274586391 -171.264151968 4.6127 0.357177 3.48484 4.61944 0.134843 3.50048 4.62261 -0.324144 3.48806 4.60571 0.230451 3.49549 -13.6796 13.8681 -2.44394 -14.2814 27.9263 2.18817 -0.0 0.0 -0.0 -8.63521 17.3279 -11.5819 -12.3661 -26.279 64.7436 1.49001 -36.4289 0.490332 32.933 -0.0335738 -4.14948 -0.180425 12.3494 3.94624 -0.0 0.0 -0.0 11.7255 20.9221 -23.2369 -26.67 38.6017 -69.5169 0.604175 16.6621 -0.0884748 33.6349 0.060223 4.23514 1.94239 -11.3787 -17.3288 0.0 0.0 0.0 6.28271 63.1191 -3.15607 -12.2417 0.307399 1.84996 24.6805 -28.4451 -4.02269 27.123 -0.0 -0.0 -0.0 0.0 -0.0 11.4703 16.0939 1.14142 -8.28369 -0.251397 -1.24533 24.4039 -2.97702 3.26824 26.4056 -0.0 -0.0 0.0 0.0 0.0 
396.674563534 711.419 -1200.36508027 -167.706978408 -43.2293752713 -172.519392336 4.53668 0.508734 3.44139 4.54323 0.288854 3.46675 4.55591 -0.170805 3.47455 4.53926 0.379743 3.45798 -13.4946 14.0612 -2.52665 -14.0974 28.339 2.12865 -0.0 0.0 -0.0 -8.7543 17.4637 -11.7295 -10.8672 -24.255 64.4394 1.74323 -40.8085 0.648491 32.9377 -0.0337495 -4.15005 -0.028216 10.0763 3.99234 -0.0 0.0 -0.0 11.7086 20.4618 -23.2332 -27.3874 38.4087 -68.8057 0.593718 16.3893 -0.0855004 33.1294 0.040923 4.17347 1.97341 -12.4543 -17.901 0.0 0.0 0.0 5.68077 64.0253 -2.56982 -12.1544 0.306614 1.83659 25.4899 -28.5871 -4.14005 27.0778 -0.0 -0.0 -0.0 0.0 -0.0 11.941 15.2679 1.32624 -8.63368 -0.258032 -1.29863 27.0805 -1.73047 3.58012 26.9012 -0.0 -0.0 0.0 0.0 0.0 
408.588900021 702.453 -1211.48023827 -169.344588673 -26.1821620487 -177.70605245 4.05084 0.391796 3.67957 4.05836 0.157025 3.69701 4.06399 -0.363835 3.68244 4.04514 0.221894 3.69369 -13.4123 14.4294 -4.75567 -14.0605 30.3991 0.130384 -0.0 0.0 -0.0 -7.79069 16.5672 -10.4495 -3.38842 -22.1945 60.8346 2.79975 -54.1974 1.43283 24.5099 0.203171 -3.10055 1.01453 -6.9546 3.89994 -0.0 0.0 -0.0 11.1316 17.5865 -22.1056 -34.1616 37.5529 -66.1588 0.513504 14.2721 -0.0642889 31.9946 -0.000410238 4.03446 2.04076 -15.2002 -19.245 0.0 0.0 0.0 -3.83992 69.2515 7.87073 -11.2166 0.296906 1.69303 25.0962 -27.527 -4.0349 31.7762 -0.0 -0.0 -0.0 0.0 -0.0 18.0563 25.03 1.12681 -15.6195 -0.322083 -2.36794 37.8605 0.901777 4.69436 20.9299 -0.0 -0.0 0.0 0.0 0.0 
